<svg width="24" height="24" viewBox="0 0 24 24" fill="none" xmlns="http://www.w3.org/2000/svg">
<path d="M15.3252 2C15.7351 2.00011 16.0752 2.34007 16.0752 2.75V4.23047C17.6649 4.71051 18.9145 5.96005 19.3945 7.5498H20.875C21.2949 7.5498 21.6249 7.88989 21.625 8.2998C21.625 8.7198 21.295 9.0498 20.875 9.0498H19.625V11.25H20.875C21.295 11.25 21.625 11.58 21.625 12C21.625 12.41 21.295 12.75 20.875 12.75H19.625V14.9502H20.875C21.295 14.9502 21.625 15.2802 21.625 15.7002C21.6249 16.1101 21.2949 16.4502 20.875 16.4502H19.3945C18.9145 18.0399 17.6649 19.2895 16.0752 19.7695V21.25C16.0752 21.6599 15.7351 21.9999 15.3252 22C14.9152 22 14.5752 21.66 14.5752 21.25V20H12.3848V21.25C12.3848 21.66 12.0448 22 11.6348 22C11.2149 21.9999 10.8848 21.6599 10.8848 21.25V20H8.68457V21.25C8.68457 21.66 8.34457 22 7.93457 22C7.51478 21.9998 7.18457 21.6599 7.18457 21.25V19.7695C5.58492 19.2894 4.32549 18.0399 3.85547 16.4502H2.375C1.96507 16.4502 1.62511 16.1101 1.625 15.7002C1.625 15.2802 1.965 14.9502 2.375 14.9502H3.625V12.75H2.375C1.965 12.75 1.625 12.41 1.625 12C1.625 11.58 1.965 11.25 2.375 11.25H3.625V9.0498H2.375C1.965 9.0498 1.625 8.7198 1.625 8.2998C1.62511 7.88989 1.96507 7.5498 2.375 7.5498H3.85547C4.33548 5.96012 5.58492 4.71055 7.18457 4.23047V2.75C7.18457 2.34014 7.51478 2.00023 7.93457 2C8.34457 2 8.68457 2.34 8.68457 2.75V4H10.875V2.75C10.875 2.34 11.215 2 11.625 2C12.035 2 12.375 2.34 12.375 2.75V4H14.5752V2.75C14.5752 2.34 14.9152 2 15.3252 2ZM8.71387 5.7998C6.878 5.80005 5.37988 7.28415 5.37988 9.13477V14.9658C5.37995 16.8164 6.86336 18.2996 8.71387 18.2998H14.5459C16.3818 18.2997 17.8798 16.8165 17.8799 14.9658V9.13477C17.8799 7.29876 16.3966 5.79992 14.5459 5.7998H8.71387Z" fill="white" fill-opacity="0.5"/>
<path d="M9.88059 15.7002H13.3794C14.4811 15.7002 15.38 14.8101 15.38 13.6996V10.2008C15.38 9.09914 14.4899 8.2002 13.3794 8.2002H9.88059C8.77895 8.2002 7.88 9.09032 7.88 10.2008V13.6996C7.88 14.8101 8.77013 15.7002 9.88059 15.7002Z" fill="white" fill-opacity="0.5"/>
</svg>
