<svg width="24" height="24" viewBox="0 0 24 24" fill="none" xmlns="http://www.w3.org/2000/svg">
<rect x="4.48438" y="4.48438" width="14.9375" height="14.9375" rx="7.46875" stroke="white" stroke-opacity="0.5"/>
<circle cx="11.9531" cy="11.9531" r="3.09375" fill="white" fill-opacity="0.5"/>
<circle cx="12" cy="0.703125" r="0.703125" fill="white" fill-opacity="0.5"/>
<circle cx="14.8594" cy="1.07812" r="0.703125" fill="white" fill-opacity="0.5"/>
<circle cx="19.9688" cy="3.98438" r="0.703125" fill="white" fill-opacity="0.5"/>
<circle cx="17.6719" cy="2.10938" r="0.703125" fill="white" fill-opacity="0.5"/>
<circle cx="21.75" cy="6.32812" r="0.703125" fill="white" fill-opacity="0.5"/>
<circle cx="21.7031" cy="17.6719" r="0.703125" fill="white" fill-opacity="0.5"/>
<circle cx="22.9219" cy="9.04688" r="0.703125" fill="white" fill-opacity="0.5"/>
<circle cx="23.2969" cy="12" r="0.703125" fill="white" fill-opacity="0.5"/>
<circle cx="22.9219" cy="14.9531" r="0.703125" fill="white" fill-opacity="0.5"/>
<circle cx="19.9688" cy="20.0156" r="0.703125" fill="white" fill-opacity="0.5"/>
<circle cx="17.625" cy="21.7969" r="0.703125" fill="white" fill-opacity="0.5"/>
<circle cx="14.9062" cy="22.9219" r="0.703125" fill="white" fill-opacity="0.5"/>
<circle cx="12" cy="23.2969" r="0.703125" fill="white" fill-opacity="0.5"/>
<circle cx="9.09375" cy="22.9219" r="0.703125" fill="white" fill-opacity="0.5"/>
<circle cx="6.375" cy="21.7969" r="0.703125" fill="white" fill-opacity="0.5"/>
<circle cx="3.9375" cy="19.9219" r="0.703125" fill="white" fill-opacity="0.5"/>
<circle cx="2.25" cy="17.625" r="0.703125" fill="white" fill-opacity="0.5"/>
<circle cx="1.07812" cy="14.9062" r="0.703125" fill="white" fill-opacity="0.5"/>
<circle cx="0.703125" cy="12" r="0.703125" fill="white" fill-opacity="0.5"/>
<circle cx="1.07812" cy="9.09375" r="0.703125" fill="white" fill-opacity="0.5"/>
<circle cx="2.25" cy="6.375" r="0.703125" fill="white" fill-opacity="0.5"/>
<circle cx="4.03125" cy="3.98438" r="0.703125" fill="white" fill-opacity="0.5"/>
<circle cx="6.32812" cy="2.10938" r="0.703125" fill="white" fill-opacity="0.5"/>
<circle cx="9.04688" cy="1.07812" r="0.703125" fill="white" fill-opacity="0.5"/>
</svg>
